<?xml version="1.0" encoding="UTF-8" standalone="no"?>
<!-- Created with Inkscape (http://www.inkscape.org/) -->

<svg
   xmlns:dc="http://purl.org/dc/elements/1.1/"
   xmlns:cc="http://creativecommons.org/ns#"
   xmlns:rdf="http://www.w3.org/1999/02/22-rdf-syntax-ns#"
   xmlns:svg="http://www.w3.org/2000/svg"
   xmlns="http://www.w3.org/2000/svg"
   xmlns:sodipodi="http://sodipodi.sourceforge.net/DTD/sodipodi-0.dtd"
   xmlns:inkscape="http://www.inkscape.org/namespaces/inkscape"
   width="793.70081"
   height="250"
   viewBox="0 0 210 66.145833"
   version="1.1"
   id="svg8"
   inkscape:version="0.92.5 (2060ec1f9f, 2020-04-08)"
   sodipodi:docname="4k-curve-1.svg">
  <defs
     id="defs2" />
  <sodipodi:namedview
     id="base"
     pagecolor="#ffffff"
     bordercolor="#666666"
     borderopacity="1.0"
     inkscape:pageopacity="0.0"
     inkscape:pageshadow="2"
     inkscape:zoom="0.45961941"
     inkscape:cx="364.61236"
     inkscape:cy="22.183255"
     inkscape:document-units="mm"
     inkscape:current-layer="layer1"
     showgrid="false"
     inkscape:window-width="1432"
     inkscape:window-height="768"
     inkscape:window-x="1280"
     inkscape:window-y="198"
     inkscape:window-maximized="0"
     showguides="false"
     units="px" />
  <metadata
     id="metadata5">
    <rdf:RDF>
      <cc:Work
         rdf:about="">
        <dc:format>image/svg+xml</dc:format>
        <dc:type
           rdf:resource="http://purl.org/dc/dcmitype/StillImage" />
        <dc:title></dc:title>
      </cc:Work>
    </rdf:RDF>
  </metadata>
  <g
     inkscape:label="Layer 1"
     inkscape:groupmode="layer"
     id="layer1"
     transform="translate(0,-230.85417)">
    <path
       style="fill:#393232;fill-opacity:0.95238097;stroke:none;stroke-width:0.99999994px;stroke-linecap:butt;stroke-linejoin:miter;stroke-opacity:1"
       d="M 593.01953 -0.8359375 L 163.42188 -0.25390625 C 187.40117 18.826207 201.38924 47.785656 201.42773 78.429688 C 201.38714 86.494595 200.37794 94.525383 198.42188 102.34961 C 325.67957 1.4700239 515.36486 84.334827 616.88672 123.24609 A 165.3542 165.3542 0 0 1 589.61914 32.427734 A 165.3542 165.3542 0 0 1 593.01953 -0.8359375 z M 37.636719 -0.048828125 L -0.95898438 0.015625 L -0.59179688 131.92773 C 3.8147886 130.21886 8.225669 128.59706 12.638672 127.04492 C 4.3873986 112.16738 0.039273789 95.442135 0 78.429688 C 0.011021178 47.919791 13.851809 19.059594 37.636719 -0.048828125 z "
       transform="matrix(0.26458333,0,0,0.26458333,0,230.85417)"
       id="path897" />
  </g>
</svg>
